<svg xmlns="http://www.w3.org/2000/svg" width="112.943" height="145.278" viewBox="0 0 112.943 145.278">
  <g id="robotError" transform="translate(-34.839 2.295) rotate(-11)">
    <path id="Tracé_23" data-name="Tracé 23" d="M86.422,48.416,80.73,41.343a4.287,4.287,0,0,1,.626-6.013l.674-.546A4.295,4.295,0,0,0,80.987,27.5L74.34,24.71" transform="translate(-9.739 -2.779)" fill="none"/>
    <path id="Tracé_24" data-name="Tracé 24" d="M85.576,48.8l-5.692-7.072a5.274,5.274,0,0,1,.8-7.385l.674-.546a3.307,3.307,0,0,0-.8-5.619L73.92,25.386l.755-1.806,6.647,2.794a5.274,5.274,0,0,1,1.284,8.943l-.674.538a3.315,3.315,0,0,0-.482,4.64l5.692,7.072Z" transform="translate(-9.656 -2.556)" fill="#1a7e5f"/>
    <circle id="Ellipse_9" data-name="Ellipse 9" cx="6.775" cy="6.775" r="6.775" transform="translate(52.134 11.599)" fill="none"/>
    <path id="Tracé_25" data-name="Tracé 25" d="M65.345,26.129A7.755,7.755,0,1,1,73.1,18.375,7.755,7.755,0,0,1,65.345,26.129Zm0-13.551a5.8,5.8,0,1,0,5.8,5.8,5.8,5.8,0,0,0-5.8-5.8Z" transform="translate(-6.436)" fill="#1a7e5f"/>
    <path id="Tracé_37" data-name="Tracé 37" d="M18.08,0H78.252a18.08,18.08,0,0,1,18.08,18.08V78.252a18.08,18.08,0,0,1-18.08,18.08H18.08A18.08,18.08,0,0,1,0,78.252V18.08A18.08,18.08,0,0,1,18.08,0Z" transform="translate(24.96 54.178)" fill="#55c8a4"/>
    <path id="Tracé_26" data-name="Tracé 26" d="M25,146.931V79.161A14.281,14.281,0,0,1,39.249,64.88H66c-14.562,2-26.259,2.585-32.03,8.028C19.445,86.6,28.861,114.033,25,146.931Z" transform="translate(-0.008 -10.702)" fill="#5ddfb6"/>
    <path id="Tracé_27" data-name="Tracé 27" d="M65.42,48.3H94.7a5.33,5.33,0,0,1,5.33,5.33V61.61H60.09V53.63A5.33,5.33,0,0,1,65.42,48.3Z" transform="translate(-6.929 -7.432)" fill="#55c8a4"/>
    <rect id="Rectangle_26" data-name="Rectangle 26" width="79.956" height="79.956" rx="17.6" transform="translate(33.148 63.619)" fill="#b7f8e4"/>
    <path id="Tracé_28" data-name="Tracé 28" d="M35.208,143.559l-.048-52.6A14.281,14.281,0,0,1,49.481,76.64h51.377c-18.135,0-39.649,1.244-52.654,3.629A12.563,12.563,0,0,0,38.066,90.7C36.027,103.9,35.208,128.138,35.208,143.559Z" transform="translate(-2.012 -13.021)" fill="#1f8c6a"/>
    <path id="Tracé_29" data-name="Tracé 29" d="M118.586,92.93l.048,52.6a14.273,14.273,0,0,1-14.257,14.281H53c18.126,0,39.641-1.244,52.645-3.629a12.563,12.563,0,0,0,10.139-10.436C117.775,132.547,118.586,108.311,118.586,92.93Z" transform="translate(-5.53 -16.234)" fill="#5ddfb6"/>
    <path id="Tracé_30" data-name="Tracé 30" d="M60.09,61.61V53.5a5.2,5.2,0,0,1,5.2-5.2H85C65.637,48.3,60.09,53.5,60.09,61.61Z" transform="translate(-6.929 -7.432)" fill="#5ddfb6"/>
    <path id="Tracé_31" data-name="Tracé 31" d="M100.028,62.888H60.09s39.938,0,39.938-8.108Z" transform="translate(-6.929 -8.71)" fill="#1f8c6a"/>
    <path id="Tracé_32" data-name="Tracé 32" d="M97.739,126.129a1.606,1.606,0,0,1-1.156-2.786l18.761-18.761a1.635,1.635,0,0,1,2.312,2.312L98.895,125.7A1.606,1.606,0,0,1,97.739,126.129Z" transform="translate(-14.024 -18.438)" fill="#1a7e5f"/>
    <path id="Tracé_33" data-name="Tracé 33" d="M116.509,126.129a1.654,1.654,0,0,1-1.156-.474L96.592,106.894a1.635,1.635,0,1,1,2.312-2.312L117.7,123.343a1.606,1.606,0,0,1-1.156,2.786Z" transform="translate(-14.034 -18.438)" fill="#1a7e5f"/>
    <path id="Tracé_34" data-name="Tracé 34" d="M48,126.129a1.606,1.606,0,0,1-1.132-2.786L65.6,104.582a1.635,1.635,0,0,1,2.312,2.312L49.153,125.7A1.606,1.606,0,0,1,48,126.129Z" transform="translate(-4.22 -18.438)" fill="#1a7e5f"/>
    <path id="Tracé_35" data-name="Tracé 35" d="M66.767,126.129a1.654,1.654,0,0,1-1.156-.474L46.882,106.9a1.632,1.632,0,0,1,2.3-2.312l18.761,18.761a1.606,1.606,0,0,1,0,2.312,1.654,1.654,0,0,1-1.18.474Z" transform="translate(-4.229 -18.439)" fill="#1a7e5f"/>
    <path id="Tracé_36" data-name="Tracé 36" d="M106.7,162.95c-3.661,0-5.563-2.119-7.088-3.813-1.365-1.525-2.408-2.729-4.648-2.729s-3.291,1.2-4.656,2.729c-1.525,1.694-3.42,3.813-7.088,3.813s-5.555-2.119-7.08-3.813c-1.373-1.525-2.408-2.729-4.656-2.729s-3.283,1.2-4.656,2.729c-1.525,1.694-3.42,3.813-7.08,3.813s-5.563-2.119-7.088-3.813c-1.365-1.525-2.448-2.729-4.648-2.729a1.634,1.634,0,0,1,0-3.267c3.661,0,5.555,2.119,7.08,3.813,1.365,1.525,2.448,2.721,4.656,2.721s3.283-1.2,4.648-2.721c1.525-1.694,3.428-3.813,7.088-3.813s5.563,2.119,7.088,3.813c1.365,1.525,2.408,2.721,4.648,2.721s3.291-1.2,4.656-2.721c1.525-1.694,3.42-3.813,7.088-3.813s5.555,2.119,7.08,3.813c1.373,1.525,2.408,2.721,4.656,2.721a1.638,1.638,0,0,1,0,3.275Z" transform="translate(-4.224 -28.11)" fill="#1a7e5f"/>
  </g>
</svg>
